<svg
  xmlns="http://www.w3.org/2000/svg"
  viewBox="0 0 1280 640"
  width="1280"
  height="640"
  role="img"
  aria-label="Fabricator"
  shape-rendering="crispEdges"
>
  <title>Fabricator</title>
  <rect width="1280" height="640" fill="#0b1020" />

  <rect x="0" y="0" width="8" height="8" fill="#16203a" />
  <rect x="64" y="0" width="8" height="8" fill="#16203a" />
  <rect x="128" y="0" width="8" height="8" fill="#16203a" />
  <rect x="192" y="0" width="8" height="8" fill="#16203a" />
  <rect x="256" y="0" width="8" height="8" fill="#16203a" />
  <rect x="320" y="0" width="8" height="8" fill="#16203a" />
  <rect x="384" y="0" width="8" height="8" fill="#16203a" />
  <rect x="448" y="0" width="8" height="8" fill="#16203a" />
  <rect x="512" y="0" width="8" height="8" fill="#16203a" />
  <rect x="576" y="0" width="8" height="8" fill="#16203a" />
  <rect x="640" y="0" width="8" height="8" fill="#16203a" />
  <rect x="704" y="0" width="8" height="8" fill="#16203a" />
  <rect x="768" y="0" width="8" height="8" fill="#16203a" />
  <rect x="832" y="0" width="8" height="8" fill="#16203a" />
  <rect x="896" y="0" width="8" height="8" fill="#16203a" />
  <rect x="960" y="0" width="8" height="8" fill="#16203a" />
  <rect x="1024" y="0" width="8" height="8" fill="#16203a" />
  <rect x="1088" y="0" width="8" height="8" fill="#16203a" />
  <rect x="1152" y="0" width="8" height="8" fill="#16203a" />
  <rect x="1216" y="0" width="8" height="8" fill="#16203a" />
  <rect x="624" y="48" width="32" height="8" fill="#7ee8fa" />
  <rect x="624" y="56" width="32" height="8" fill="#7ee8fa" />
  <rect x="0" y="64" width="8" height="8" fill="#16203a" />
  <rect x="64" y="64" width="8" height="8" fill="#16203a" />
  <rect x="128" y="64" width="8" height="8" fill="#16203a" />
  <rect x="192" y="64" width="8" height="8" fill="#16203a" />
  <rect x="256" y="64" width="8" height="8" fill="#16203a" />
  <rect x="320" y="64" width="8" height="8" fill="#16203a" />
  <rect x="384" y="64" width="8" height="8" fill="#16203a" />
  <rect x="448" y="64" width="8" height="8" fill="#16203a" />
  <rect x="512" y="64" width="8" height="8" fill="#16203a" />
  <rect x="576" y="64" width="8" height="8" fill="#16203a" />
  <rect x="592" y="64" width="96" height="8" fill="#7ee8fa" />
  <rect x="704" y="64" width="8" height="8" fill="#16203a" />
  <rect x="768" y="64" width="8" height="8" fill="#16203a" />
  <rect x="832" y="64" width="8" height="8" fill="#16203a" />
  <rect x="896" y="64" width="8" height="8" fill="#16203a" />
  <rect x="960" y="64" width="8" height="8" fill="#16203a" />
  <rect x="1024" y="64" width="8" height="8" fill="#16203a" />
  <rect x="1088" y="64" width="8" height="8" fill="#16203a" />
  <rect x="1152" y="64" width="8" height="8" fill="#16203a" />
  <rect x="1216" y="64" width="8" height="8" fill="#16203a" />
  <rect x="592" y="72" width="96" height="8" fill="#7ee8fa" />
  <rect x="560" y="80" width="160" height="8" fill="#7ee8fa" />
  <rect x="560" y="88" width="160" height="8" fill="#7ee8fa" />
  <rect x="528" y="96" width="224" height="8" fill="#7ee8fa" />
  <rect x="528" y="104" width="224" height="8" fill="#7ee8fa" />
  <rect x="528" y="112" width="224" height="8" fill="#7ee8fa" />
  <rect x="528" y="120" width="224" height="8" fill="#7ee8fa" />
  <rect x="0" y="128" width="8" height="8" fill="#16203a" />
  <rect x="64" y="128" width="8" height="8" fill="#16203a" />
  <rect x="128" y="128" width="8" height="8" fill="#16203a" />
  <rect x="192" y="128" width="8" height="8" fill="#16203a" />
  <rect x="256" y="128" width="8" height="8" fill="#16203a" />
  <rect x="320" y="128" width="8" height="8" fill="#16203a" />
  <rect x="384" y="128" width="8" height="8" fill="#16203a" />
  <rect x="448" y="128" width="8" height="8" fill="#16203a" />
  <rect x="512" y="128" width="8" height="8" fill="#16203a" />
  <rect x="528" y="128" width="32" height="8" fill="#00add8" />
  <rect x="560" y="128" width="160" height="8" fill="#7ee8fa" />
  <rect x="720" y="128" width="32" height="8" fill="#00728f" />
  <rect x="768" y="128" width="8" height="8" fill="#16203a" />
  <rect x="832" y="128" width="8" height="8" fill="#16203a" />
  <rect x="896" y="128" width="8" height="8" fill="#16203a" />
  <rect x="960" y="128" width="8" height="8" fill="#16203a" />
  <rect x="1024" y="128" width="8" height="8" fill="#16203a" />
  <rect x="1088" y="128" width="8" height="8" fill="#16203a" />
  <rect x="1152" y="128" width="8" height="8" fill="#16203a" />
  <rect x="1216" y="128" width="8" height="8" fill="#16203a" />
  <rect x="528" y="136" width="32" height="8" fill="#00add8" />
  <rect x="560" y="136" width="160" height="8" fill="#7ee8fa" />
  <rect x="720" y="136" width="32" height="8" fill="#00728f" />
  <rect x="528" y="144" width="64" height="8" fill="#00add8" />
  <rect x="592" y="144" width="96" height="8" fill="#7ee8fa" />
  <rect x="688" y="144" width="64" height="8" fill="#00728f" />
  <rect x="528" y="152" width="64" height="8" fill="#00add8" />
  <rect x="592" y="152" width="96" height="8" fill="#7ee8fa" />
  <rect x="688" y="152" width="64" height="8" fill="#00728f" />
  <rect x="528" y="160" width="96" height="8" fill="#00add8" />
  <rect x="624" y="160" width="32" height="8" fill="#7ee8fa" />
  <rect x="656" y="160" width="96" height="8" fill="#00728f" />
  <rect x="528" y="168" width="96" height="8" fill="#00add8" />
  <rect x="624" y="168" width="32" height="8" fill="#7ee8fa" />
  <rect x="656" y="168" width="96" height="8" fill="#00728f" />
  <rect x="528" y="176" width="112" height="8" fill="#00add8" />
  <rect x="640" y="176" width="112" height="8" fill="#00728f" />
  <rect x="528" y="184" width="112" height="8" fill="#00add8" />
  <rect x="640" y="184" width="112" height="8" fill="#00728f" />
  <rect x="0" y="192" width="8" height="8" fill="#16203a" />
  <rect x="64" y="192" width="8" height="8" fill="#16203a" />
  <rect x="128" y="192" width="8" height="8" fill="#16203a" />
  <rect x="192" y="192" width="8" height="8" fill="#16203a" />
  <rect x="256" y="192" width="8" height="8" fill="#16203a" />
  <rect x="320" y="192" width="8" height="8" fill="#16203a" />
  <rect x="384" y="192" width="8" height="8" fill="#16203a" />
  <rect x="448" y="192" width="8" height="8" fill="#16203a" />
  <rect x="512" y="192" width="8" height="8" fill="#16203a" />
  <rect x="528" y="192" width="112" height="8" fill="#00add8" />
  <rect x="640" y="192" width="112" height="8" fill="#00728f" />
  <rect x="768" y="192" width="8" height="8" fill="#16203a" />
  <rect x="832" y="192" width="8" height="8" fill="#16203a" />
  <rect x="896" y="192" width="8" height="8" fill="#16203a" />
  <rect x="960" y="192" width="8" height="8" fill="#16203a" />
  <rect x="1024" y="192" width="8" height="8" fill="#16203a" />
  <rect x="1088" y="192" width="8" height="8" fill="#16203a" />
  <rect x="1152" y="192" width="8" height="8" fill="#16203a" />
  <rect x="1216" y="192" width="8" height="8" fill="#16203a" />
  <rect x="528" y="200" width="112" height="8" fill="#00add8" />
  <rect x="640" y="200" width="112" height="8" fill="#00728f" />
  <rect x="560" y="208" width="80" height="8" fill="#00add8" />
  <rect x="640" y="208" width="80" height="8" fill="#00728f" />
  <rect x="560" y="216" width="80" height="8" fill="#00add8" />
  <rect x="640" y="216" width="80" height="8" fill="#00728f" />
  <rect x="592" y="224" width="48" height="8" fill="#00add8" />
  <rect x="640" y="224" width="48" height="8" fill="#00728f" />
  <rect x="592" y="232" width="48" height="8" fill="#00add8" />
  <rect x="640" y="232" width="48" height="8" fill="#00728f" />
  <rect x="624" y="240" width="16" height="8" fill="#00add8" />
  <rect x="640" y="240" width="16" height="8" fill="#00728f" />
  <rect x="624" y="248" width="16" height="8" fill="#00add8" />
  <rect x="640" y="248" width="16" height="8" fill="#00728f" />
  <rect x="0" y="256" width="8" height="8" fill="#16203a" />
  <rect x="64" y="256" width="8" height="8" fill="#16203a" />
  <rect x="128" y="256" width="8" height="8" fill="#16203a" />
  <rect x="192" y="256" width="8" height="8" fill="#16203a" />
  <rect x="256" y="256" width="8" height="8" fill="#16203a" />
  <rect x="320" y="256" width="8" height="8" fill="#16203a" />
  <rect x="384" y="256" width="8" height="8" fill="#16203a" />
  <rect x="448" y="256" width="8" height="8" fill="#16203a" />
  <rect x="512" y="256" width="8" height="8" fill="#16203a" />
  <rect x="576" y="256" width="8" height="8" fill="#16203a" />
  <rect x="640" y="256" width="8" height="8" fill="#16203a" />
  <rect x="704" y="256" width="8" height="8" fill="#16203a" />
  <rect x="768" y="256" width="8" height="8" fill="#16203a" />
  <rect x="832" y="256" width="8" height="8" fill="#16203a" />
  <rect x="896" y="256" width="8" height="8" fill="#16203a" />
  <rect x="960" y="256" width="8" height="8" fill="#16203a" />
  <rect x="1024" y="256" width="8" height="8" fill="#16203a" />
  <rect x="1088" y="256" width="8" height="8" fill="#16203a" />
  <rect x="1152" y="256" width="8" height="8" fill="#16203a" />
  <rect x="1216" y="256" width="8" height="8" fill="#16203a" />
  <rect x="168" y="304" width="80" height="8" fill="#f2f5fa" />
  <rect x="280" y="304" width="48" height="8" fill="#f2f5fa" />
  <rect x="360" y="304" width="64" height="8" fill="#f2f5fa" />
  <rect x="456" y="304" width="64" height="8" fill="#f2f5fa" />
  <rect x="552" y="304" width="80" height="8" fill="#f2f5fa" />
  <rect x="664" y="304" width="64" height="8" fill="#f2f5fa" />
  <rect x="760" y="304" width="48" height="8" fill="#f2f5fa" />
  <rect x="840" y="304" width="80" height="8" fill="#f2f5fa" />
  <rect x="952" y="304" width="48" height="8" fill="#f2f5fa" />
  <rect x="1032" y="304" width="64" height="8" fill="#f2f5fa" />
  <rect x="168" y="312" width="80" height="8" fill="#f2f5fa" />
  <rect x="280" y="312" width="48" height="8" fill="#f2f5fa" />
  <rect x="360" y="312" width="64" height="8" fill="#f2f5fa" />
  <rect x="456" y="312" width="64" height="8" fill="#f2f5fa" />
  <rect x="552" y="312" width="80" height="8" fill="#f2f5fa" />
  <rect x="664" y="312" width="64" height="8" fill="#f2f5fa" />
  <rect x="760" y="312" width="48" height="8" fill="#f2f5fa" />
  <rect x="840" y="312" width="80" height="8" fill="#f2f5fa" />
  <rect x="952" y="312" width="48" height="8" fill="#f2f5fa" />
  <rect x="1032" y="312" width="64" height="8" fill="#f2f5fa" />
  <rect x="0" y="320" width="8" height="8" fill="#16203a" />
  <rect x="64" y="320" width="8" height="8" fill="#16203a" />
  <rect x="128" y="320" width="8" height="8" fill="#16203a" />
  <rect x="168" y="320" width="16" height="8" fill="#f2f5fa" />
  <rect x="192" y="320" width="8" height="8" fill="#16203a" />
  <rect x="256" y="320" width="8" height="8" fill="#16203a" />
  <rect x="264" y="320" width="16" height="8" fill="#f2f5fa" />
  <rect x="320" y="320" width="8" height="8" fill="#16203a" />
  <rect x="328" y="320" width="16" height="8" fill="#f2f5fa" />
  <rect x="360" y="320" width="16" height="8" fill="#f2f5fa" />
  <rect x="384" y="320" width="8" height="8" fill="#16203a" />
  <rect x="424" y="320" width="16" height="8" fill="#f2f5fa" />
  <rect x="448" y="320" width="8" height="8" fill="#16203a" />
  <rect x="456" y="320" width="16" height="8" fill="#f2f5fa" />
  <rect x="512" y="320" width="8" height="8" fill="#16203a" />
  <rect x="520" y="320" width="16" height="8" fill="#f2f5fa" />
  <rect x="576" y="320" width="8" height="8" fill="#16203a" />
  <rect x="584" y="320" width="16" height="8" fill="#f2f5fa" />
  <rect x="640" y="320" width="8" height="8" fill="#16203a" />
  <rect x="648" y="320" width="16" height="8" fill="#f2f5fa" />
  <rect x="704" y="320" width="8" height="8" fill="#16203a" />
  <rect x="744" y="320" width="16" height="8" fill="#f2f5fa" />
  <rect x="768" y="320" width="8" height="8" fill="#16203a" />
  <rect x="808" y="320" width="16" height="8" fill="#f2f5fa" />
  <rect x="832" y="320" width="8" height="8" fill="#16203a" />
  <rect x="872" y="320" width="16" height="8" fill="#f2f5fa" />
  <rect x="896" y="320" width="8" height="8" fill="#16203a" />
  <rect x="936" y="320" width="16" height="8" fill="#f2f5fa" />
  <rect x="960" y="320" width="8" height="8" fill="#16203a" />
  <rect x="1000" y="320" width="16" height="8" fill="#f2f5fa" />
  <rect x="1024" y="320" width="8" height="8" fill="#16203a" />
  <rect x="1032" y="320" width="16" height="8" fill="#f2f5fa" />
  <rect x="1088" y="320" width="8" height="8" fill="#16203a" />
  <rect x="1096" y="320" width="16" height="8" fill="#f2f5fa" />
  <rect x="1152" y="320" width="8" height="8" fill="#16203a" />
  <rect x="1216" y="320" width="8" height="8" fill="#16203a" />
  <rect x="168" y="328" width="16" height="8" fill="#f2f5fa" />
  <rect x="264" y="328" width="16" height="8" fill="#f2f5fa" />
  <rect x="328" y="328" width="16" height="8" fill="#f2f5fa" />
  <rect x="360" y="328" width="16" height="8" fill="#f2f5fa" />
  <rect x="424" y="328" width="16" height="8" fill="#f2f5fa" />
  <rect x="456" y="328" width="16" height="8" fill="#f2f5fa" />
  <rect x="520" y="328" width="16" height="8" fill="#f2f5fa" />
  <rect x="584" y="328" width="16" height="8" fill="#f2f5fa" />
  <rect x="648" y="328" width="16" height="8" fill="#f2f5fa" />
  <rect x="744" y="328" width="16" height="8" fill="#f2f5fa" />
  <rect x="808" y="328" width="16" height="8" fill="#f2f5fa" />
  <rect x="872" y="328" width="16" height="8" fill="#f2f5fa" />
  <rect x="936" y="328" width="16" height="8" fill="#f2f5fa" />
  <rect x="1000" y="328" width="16" height="8" fill="#f2f5fa" />
  <rect x="1032" y="328" width="16" height="8" fill="#f2f5fa" />
  <rect x="1096" y="328" width="16" height="8" fill="#f2f5fa" />
  <rect x="168" y="336" width="16" height="8" fill="#f2f5fa" />
  <rect x="264" y="336" width="16" height="8" fill="#f2f5fa" />
  <rect x="328" y="336" width="16" height="8" fill="#f2f5fa" />
  <rect x="360" y="336" width="16" height="8" fill="#f2f5fa" />
  <rect x="424" y="336" width="16" height="8" fill="#f2f5fa" />
  <rect x="456" y="336" width="16" height="8" fill="#f2f5fa" />
  <rect x="520" y="336" width="16" height="8" fill="#f2f5fa" />
  <rect x="584" y="336" width="16" height="8" fill="#f2f5fa" />
  <rect x="648" y="336" width="16" height="8" fill="#f2f5fa" />
  <rect x="744" y="336" width="16" height="8" fill="#f2f5fa" />
  <rect x="808" y="336" width="16" height="8" fill="#f2f5fa" />
  <rect x="872" y="336" width="16" height="8" fill="#f2f5fa" />
  <rect x="936" y="336" width="16" height="8" fill="#f2f5fa" />
  <rect x="1000" y="336" width="16" height="8" fill="#f2f5fa" />
  <rect x="1032" y="336" width="16" height="8" fill="#f2f5fa" />
  <rect x="1096" y="336" width="16" height="8" fill="#f2f5fa" />
  <rect x="168" y="344" width="16" height="8" fill="#f2f5fa" />
  <rect x="264" y="344" width="16" height="8" fill="#f2f5fa" />
  <rect x="328" y="344" width="16" height="8" fill="#f2f5fa" />
  <rect x="360" y="344" width="16" height="8" fill="#f2f5fa" />
  <rect x="424" y="344" width="16" height="8" fill="#f2f5fa" />
  <rect x="456" y="344" width="16" height="8" fill="#f2f5fa" />
  <rect x="520" y="344" width="16" height="8" fill="#f2f5fa" />
  <rect x="584" y="344" width="16" height="8" fill="#f2f5fa" />
  <rect x="648" y="344" width="16" height="8" fill="#f2f5fa" />
  <rect x="744" y="344" width="16" height="8" fill="#f2f5fa" />
  <rect x="808" y="344" width="16" height="8" fill="#f2f5fa" />
  <rect x="872" y="344" width="16" height="8" fill="#f2f5fa" />
  <rect x="936" y="344" width="16" height="8" fill="#f2f5fa" />
  <rect x="1000" y="344" width="16" height="8" fill="#f2f5fa" />
  <rect x="1032" y="344" width="16" height="8" fill="#f2f5fa" />
  <rect x="1096" y="344" width="16" height="8" fill="#f2f5fa" />
  <rect x="168" y="352" width="64" height="8" fill="#f2f5fa" />
  <rect x="264" y="352" width="80" height="8" fill="#f2f5fa" />
  <rect x="360" y="352" width="64" height="8" fill="#f2f5fa" />
  <rect x="456" y="352" width="64" height="8" fill="#f2f5fa" />
  <rect x="584" y="352" width="16" height="8" fill="#f2f5fa" />
  <rect x="648" y="352" width="16" height="8" fill="#f2f5fa" />
  <rect x="744" y="352" width="80" height="8" fill="#f2f5fa" />
  <rect x="872" y="352" width="16" height="8" fill="#f2f5fa" />
  <rect x="936" y="352" width="16" height="8" fill="#f2f5fa" />
  <rect x="1000" y="352" width="16" height="8" fill="#f2f5fa" />
  <rect x="1032" y="352" width="64" height="8" fill="#f2f5fa" />
  <rect x="168" y="360" width="64" height="8" fill="#f2f5fa" />
  <rect x="264" y="360" width="80" height="8" fill="#f2f5fa" />
  <rect x="360" y="360" width="64" height="8" fill="#f2f5fa" />
  <rect x="456" y="360" width="64" height="8" fill="#f2f5fa" />
  <rect x="584" y="360" width="16" height="8" fill="#f2f5fa" />
  <rect x="648" y="360" width="16" height="8" fill="#f2f5fa" />
  <rect x="744" y="360" width="80" height="8" fill="#f2f5fa" />
  <rect x="872" y="360" width="16" height="8" fill="#f2f5fa" />
  <rect x="936" y="360" width="16" height="8" fill="#f2f5fa" />
  <rect x="1000" y="360" width="16" height="8" fill="#f2f5fa" />
  <rect x="1032" y="360" width="64" height="8" fill="#f2f5fa" />
  <rect x="168" y="368" width="16" height="8" fill="#f2f5fa" />
  <rect x="264" y="368" width="16" height="8" fill="#f2f5fa" />
  <rect x="328" y="368" width="16" height="8" fill="#f2f5fa" />
  <rect x="360" y="368" width="16" height="8" fill="#f2f5fa" />
  <rect x="424" y="368" width="16" height="8" fill="#f2f5fa" />
  <rect x="456" y="368" width="16" height="8" fill="#f2f5fa" />
  <rect x="504" y="368" width="16" height="8" fill="#f2f5fa" />
  <rect x="584" y="368" width="16" height="8" fill="#f2f5fa" />
  <rect x="648" y="368" width="16" height="8" fill="#f2f5fa" />
  <rect x="744" y="368" width="16" height="8" fill="#f2f5fa" />
  <rect x="808" y="368" width="16" height="8" fill="#f2f5fa" />
  <rect x="872" y="368" width="16" height="8" fill="#f2f5fa" />
  <rect x="936" y="368" width="16" height="8" fill="#f2f5fa" />
  <rect x="1000" y="368" width="16" height="8" fill="#f2f5fa" />
  <rect x="1032" y="368" width="16" height="8" fill="#f2f5fa" />
  <rect x="1080" y="368" width="16" height="8" fill="#f2f5fa" />
  <rect x="168" y="376" width="16" height="8" fill="#f2f5fa" />
  <rect x="264" y="376" width="16" height="8" fill="#f2f5fa" />
  <rect x="328" y="376" width="16" height="8" fill="#f2f5fa" />
  <rect x="360" y="376" width="16" height="8" fill="#f2f5fa" />
  <rect x="424" y="376" width="16" height="8" fill="#f2f5fa" />
  <rect x="456" y="376" width="16" height="8" fill="#f2f5fa" />
  <rect x="504" y="376" width="16" height="8" fill="#f2f5fa" />
  <rect x="584" y="376" width="16" height="8" fill="#f2f5fa" />
  <rect x="648" y="376" width="16" height="8" fill="#f2f5fa" />
  <rect x="744" y="376" width="16" height="8" fill="#f2f5fa" />
  <rect x="808" y="376" width="16" height="8" fill="#f2f5fa" />
  <rect x="872" y="376" width="16" height="8" fill="#f2f5fa" />
  <rect x="936" y="376" width="16" height="8" fill="#f2f5fa" />
  <rect x="1000" y="376" width="16" height="8" fill="#f2f5fa" />
  <rect x="1032" y="376" width="16" height="8" fill="#f2f5fa" />
  <rect x="1080" y="376" width="16" height="8" fill="#f2f5fa" />
  <rect x="0" y="384" width="8" height="8" fill="#16203a" />
  <rect x="64" y="384" width="8" height="8" fill="#16203a" />
  <rect x="128" y="384" width="8" height="8" fill="#16203a" />
  <rect x="168" y="384" width="16" height="8" fill="#f2f5fa" />
  <rect x="192" y="384" width="8" height="8" fill="#16203a" />
  <rect x="256" y="384" width="8" height="8" fill="#16203a" />
  <rect x="264" y="384" width="16" height="8" fill="#f2f5fa" />
  <rect x="320" y="384" width="8" height="8" fill="#16203a" />
  <rect x="328" y="384" width="16" height="8" fill="#f2f5fa" />
  <rect x="360" y="384" width="16" height="8" fill="#f2f5fa" />
  <rect x="384" y="384" width="8" height="8" fill="#16203a" />
  <rect x="424" y="384" width="16" height="8" fill="#f2f5fa" />
  <rect x="448" y="384" width="8" height="8" fill="#16203a" />
  <rect x="456" y="384" width="16" height="8" fill="#f2f5fa" />
  <rect x="512" y="384" width="8" height="8" fill="#16203a" />
  <rect x="520" y="384" width="16" height="8" fill="#f2f5fa" />
  <rect x="576" y="384" width="8" height="8" fill="#16203a" />
  <rect x="584" y="384" width="16" height="8" fill="#f2f5fa" />
  <rect x="640" y="384" width="8" height="8" fill="#16203a" />
  <rect x="648" y="384" width="16" height="8" fill="#f2f5fa" />
  <rect x="704" y="384" width="8" height="8" fill="#16203a" />
  <rect x="744" y="384" width="16" height="8" fill="#f2f5fa" />
  <rect x="768" y="384" width="8" height="8" fill="#16203a" />
  <rect x="808" y="384" width="16" height="8" fill="#f2f5fa" />
  <rect x="832" y="384" width="8" height="8" fill="#16203a" />
  <rect x="872" y="384" width="16" height="8" fill="#f2f5fa" />
  <rect x="896" y="384" width="8" height="8" fill="#16203a" />
  <rect x="936" y="384" width="16" height="8" fill="#f2f5fa" />
  <rect x="960" y="384" width="8" height="8" fill="#16203a" />
  <rect x="1000" y="384" width="16" height="8" fill="#f2f5fa" />
  <rect x="1024" y="384" width="8" height="8" fill="#16203a" />
  <rect x="1032" y="384" width="16" height="8" fill="#f2f5fa" />
  <rect x="1088" y="384" width="8" height="8" fill="#16203a" />
  <rect x="1096" y="384" width="16" height="8" fill="#f2f5fa" />
  <rect x="1152" y="384" width="8" height="8" fill="#16203a" />
  <rect x="1216" y="384" width="8" height="8" fill="#16203a" />
  <rect x="168" y="392" width="16" height="8" fill="#f2f5fa" />
  <rect x="264" y="392" width="16" height="8" fill="#f2f5fa" />
  <rect x="328" y="392" width="16" height="8" fill="#f2f5fa" />
  <rect x="360" y="392" width="16" height="8" fill="#f2f5fa" />
  <rect x="424" y="392" width="16" height="8" fill="#f2f5fa" />
  <rect x="456" y="392" width="16" height="8" fill="#f2f5fa" />
  <rect x="520" y="392" width="16" height="8" fill="#f2f5fa" />
  <rect x="584" y="392" width="16" height="8" fill="#f2f5fa" />
  <rect x="648" y="392" width="16" height="8" fill="#f2f5fa" />
  <rect x="744" y="392" width="16" height="8" fill="#f2f5fa" />
  <rect x="808" y="392" width="16" height="8" fill="#f2f5fa" />
  <rect x="872" y="392" width="16" height="8" fill="#f2f5fa" />
  <rect x="936" y="392" width="16" height="8" fill="#f2f5fa" />
  <rect x="1000" y="392" width="16" height="8" fill="#f2f5fa" />
  <rect x="1032" y="392" width="16" height="8" fill="#f2f5fa" />
  <rect x="1096" y="392" width="16" height="8" fill="#f2f5fa" />
  <rect x="168" y="400" width="16" height="8" fill="#f2f5fa" />
  <rect x="264" y="400" width="16" height="8" fill="#f2f5fa" />
  <rect x="328" y="400" width="16" height="8" fill="#f2f5fa" />
  <rect x="360" y="400" width="64" height="8" fill="#f2f5fa" />
  <rect x="456" y="400" width="16" height="8" fill="#f2f5fa" />
  <rect x="520" y="400" width="16" height="8" fill="#f2f5fa" />
  <rect x="552" y="400" width="80" height="8" fill="#f2f5fa" />
  <rect x="664" y="400" width="64" height="8" fill="#f2f5fa" />
  <rect x="744" y="400" width="16" height="8" fill="#f2f5fa" />
  <rect x="808" y="400" width="16" height="8" fill="#f2f5fa" />
  <rect x="872" y="400" width="16" height="8" fill="#f2f5fa" />
  <rect x="952" y="400" width="48" height="8" fill="#f2f5fa" />
  <rect x="1032" y="400" width="16" height="8" fill="#f2f5fa" />
  <rect x="1096" y="400" width="16" height="8" fill="#f2f5fa" />
  <rect x="168" y="408" width="16" height="8" fill="#f2f5fa" />
  <rect x="264" y="408" width="16" height="8" fill="#f2f5fa" />
  <rect x="328" y="408" width="16" height="8" fill="#f2f5fa" />
  <rect x="360" y="408" width="64" height="8" fill="#f2f5fa" />
  <rect x="456" y="408" width="16" height="8" fill="#f2f5fa" />
  <rect x="520" y="408" width="16" height="8" fill="#f2f5fa" />
  <rect x="552" y="408" width="80" height="8" fill="#f2f5fa" />
  <rect x="664" y="408" width="64" height="8" fill="#f2f5fa" />
  <rect x="744" y="408" width="16" height="8" fill="#f2f5fa" />
  <rect x="808" y="408" width="16" height="8" fill="#f2f5fa" />
  <rect x="872" y="408" width="16" height="8" fill="#f2f5fa" />
  <rect x="952" y="408" width="48" height="8" fill="#f2f5fa" />
  <rect x="1032" y="408" width="16" height="8" fill="#f2f5fa" />
  <rect x="1096" y="408" width="16" height="8" fill="#f2f5fa" />
  <rect x="168" y="432" width="944" height="8" fill="#00add8" />
  <rect x="0" y="448" width="8" height="8" fill="#16203a" />
  <rect x="64" y="448" width="8" height="8" fill="#16203a" />
  <rect x="128" y="448" width="8" height="8" fill="#16203a" />
  <rect x="192" y="448" width="8" height="8" fill="#16203a" />
  <rect x="256" y="448" width="8" height="8" fill="#16203a" />
  <rect x="320" y="448" width="8" height="8" fill="#16203a" />
  <rect x="384" y="448" width="8" height="8" fill="#16203a" />
  <rect x="448" y="448" width="8" height="8" fill="#16203a" />
  <rect x="512" y="448" width="8" height="8" fill="#16203a" />
  <rect x="576" y="448" width="8" height="8" fill="#16203a" />
  <rect x="640" y="448" width="8" height="8" fill="#16203a" />
  <rect x="704" y="448" width="8" height="8" fill="#16203a" />
  <rect x="768" y="448" width="8" height="8" fill="#16203a" />
  <rect x="832" y="448" width="8" height="8" fill="#16203a" />
  <rect x="896" y="448" width="8" height="8" fill="#16203a" />
  <rect x="960" y="448" width="8" height="8" fill="#16203a" />
  <rect x="1024" y="448" width="8" height="8" fill="#16203a" />
  <rect x="1088" y="448" width="8" height="8" fill="#16203a" />
  <rect x="1152" y="448" width="8" height="8" fill="#16203a" />
  <rect x="1216" y="448" width="8" height="8" fill="#16203a" />
  <rect x="168" y="480" width="8" height="8" fill="#f2a93b" />
  <rect x="192" y="480" width="8" height="8" fill="#f2a93b" />
  <rect x="216" y="480" width="8" height="8" fill="#f2a93b" />
  <rect x="240" y="480" width="8" height="8" fill="#f2a93b" />
  <rect x="264" y="480" width="8" height="8" fill="#f2a93b" />
  <rect x="288" y="480" width="8" height="8" fill="#f2a93b" />
  <rect x="312" y="480" width="8" height="8" fill="#f2a93b" />
  <rect x="336" y="480" width="8" height="8" fill="#f2a93b" />
  <rect x="360" y="480" width="8" height="8" fill="#f2a93b" />
  <rect x="384" y="480" width="8" height="8" fill="#f2a93b" />
  <rect x="408" y="480" width="8" height="8" fill="#f2a93b" />
  <rect x="432" y="480" width="8" height="8" fill="#f2a93b" />
  <rect x="456" y="480" width="8" height="8" fill="#f2a93b" />
  <rect x="480" y="480" width="8" height="8" fill="#f2a93b" />
  <rect x="504" y="480" width="8" height="8" fill="#f2a93b" />
  <rect x="528" y="480" width="8" height="8" fill="#f2a93b" />
  <rect x="552" y="480" width="8" height="8" fill="#f2a93b" />
  <rect x="576" y="480" width="8" height="8" fill="#f2a93b" />
  <rect x="600" y="480" width="8" height="8" fill="#f2a93b" />
  <rect x="624" y="480" width="8" height="8" fill="#f2a93b" />
  <rect x="648" y="480" width="8" height="8" fill="#f2a93b" />
  <rect x="672" y="480" width="8" height="8" fill="#f2a93b" />
  <rect x="696" y="480" width="8" height="8" fill="#f2a93b" />
  <rect x="720" y="480" width="8" height="8" fill="#f2a93b" />
  <rect x="744" y="480" width="8" height="8" fill="#f2a93b" />
  <rect x="768" y="480" width="8" height="8" fill="#f2a93b" />
  <rect x="792" y="480" width="8" height="8" fill="#f2a93b" />
  <rect x="816" y="480" width="8" height="8" fill="#f2a93b" />
  <rect x="840" y="480" width="8" height="8" fill="#f2a93b" />
  <rect x="864" y="480" width="8" height="8" fill="#f2a93b" />
  <rect x="888" y="480" width="8" height="8" fill="#f2a93b" />
  <rect x="912" y="480" width="8" height="8" fill="#f2a93b" />
  <rect x="936" y="480" width="8" height="8" fill="#f2a93b" />
  <rect x="960" y="480" width="8" height="8" fill="#f2a93b" />
  <rect x="984" y="480" width="8" height="8" fill="#f2a93b" />
  <rect x="1008" y="480" width="8" height="8" fill="#f2a93b" />
  <rect x="1032" y="480" width="8" height="8" fill="#f2a93b" />
  <rect x="1056" y="480" width="8" height="8" fill="#f2a93b" />
  <rect x="1080" y="480" width="8" height="8" fill="#f2a93b" />
  <rect x="1104" y="480" width="8" height="8" fill="#f2a93b" />
  <rect x="0" y="512" width="8" height="8" fill="#16203a" />
  <rect x="64" y="512" width="8" height="8" fill="#16203a" />
  <rect x="128" y="512" width="8" height="8" fill="#16203a" />
  <rect x="192" y="512" width="8" height="8" fill="#16203a" />
  <rect x="256" y="512" width="8" height="8" fill="#16203a" />
  <rect x="320" y="512" width="8" height="8" fill="#16203a" />
  <rect x="384" y="512" width="8" height="8" fill="#16203a" />
  <rect x="448" y="512" width="8" height="8" fill="#16203a" />
  <rect x="512" y="512" width="8" height="8" fill="#16203a" />
  <rect x="576" y="512" width="8" height="8" fill="#16203a" />
  <rect x="640" y="512" width="8" height="8" fill="#16203a" />
  <rect x="704" y="512" width="8" height="8" fill="#16203a" />
  <rect x="768" y="512" width="8" height="8" fill="#16203a" />
  <rect x="832" y="512" width="8" height="8" fill="#16203a" />
  <rect x="896" y="512" width="8" height="8" fill="#16203a" />
  <rect x="960" y="512" width="8" height="8" fill="#16203a" />
  <rect x="1024" y="512" width="8" height="8" fill="#16203a" />
  <rect x="1088" y="512" width="8" height="8" fill="#16203a" />
  <rect x="1152" y="512" width="8" height="8" fill="#16203a" />
  <rect x="1216" y="512" width="8" height="8" fill="#16203a" />
  <rect x="120" y="528" width="40" height="8" fill="#8b97a8" />
  <rect x="168" y="528" width="8" height="8" fill="#8b97a8" />
  <rect x="200" y="528" width="8" height="8" fill="#8b97a8" />
  <rect x="216" y="528" width="32" height="8" fill="#8b97a8" />
  <rect x="264" y="528" width="40" height="8" fill="#8b97a8" />
  <rect x="312" y="528" width="32" height="8" fill="#8b97a8" />
  <rect x="408" y="528" width="40" height="8" fill="#8b97a8" />
  <rect x="456" y="528" width="40" height="8" fill="#8b97a8" />
  <rect x="512" y="528" width="32" height="8" fill="#8b97a8" />
  <rect x="552" y="528" width="40" height="8" fill="#8b97a8" />
  <rect x="648" y="528" width="32" height="8" fill="#8b97a8" />
  <rect x="704" y="528" width="24" height="8" fill="#8b97a8" />
  <rect x="744" y="528" width="40" height="8" fill="#8b97a8" />
  <rect x="800" y="528" width="24" height="8" fill="#8b97a8" />
  <rect x="888" y="528" width="40" height="8" fill="#8b97a8" />
  <rect x="944" y="528" width="24" height="8" fill="#8b97a8" />
  <rect x="984" y="528" width="32" height="8" fill="#8b97a8" />
  <rect x="1088" y="528" width="32" height="8" fill="#8b97a8" />
  <rect x="1136" y="528" width="24" height="8" fill="#8b97a8" />
  <rect x="136" y="536" width="8" height="8" fill="#8b97a8" />
  <rect x="168" y="536" width="8" height="8" fill="#8b97a8" />
  <rect x="200" y="536" width="8" height="8" fill="#8b97a8" />
  <rect x="216" y="536" width="8" height="8" fill="#8b97a8" />
  <rect x="248" y="536" width="8" height="8" fill="#8b97a8" />
  <rect x="264" y="536" width="8" height="8" fill="#8b97a8" />
  <rect x="312" y="536" width="8" height="8" fill="#8b97a8" />
  <rect x="344" y="536" width="8" height="8" fill="#8b97a8" />
  <rect x="424" y="536" width="8" height="8" fill="#8b97a8" />
  <rect x="456" y="536" width="8" height="8" fill="#8b97a8" />
  <rect x="504" y="536" width="8" height="8" fill="#8b97a8" />
  <rect x="568" y="536" width="8" height="8" fill="#8b97a8" />
  <rect x="648" y="536" width="8" height="8" fill="#8b97a8" />
  <rect x="680" y="536" width="8" height="8" fill="#8b97a8" />
  <rect x="696" y="536" width="8" height="8" fill="#8b97a8" />
  <rect x="728" y="536" width="8" height="8" fill="#8b97a8" />
  <rect x="760" y="536" width="8" height="8" fill="#8b97a8" />
  <rect x="792" y="536" width="8" height="8" fill="#8b97a8" />
  <rect x="824" y="536" width="8" height="8" fill="#8b97a8" />
  <rect x="888" y="536" width="8" height="8" fill="#8b97a8" />
  <rect x="936" y="536" width="8" height="8" fill="#8b97a8" />
  <rect x="968" y="536" width="8" height="8" fill="#8b97a8" />
  <rect x="984" y="536" width="8" height="8" fill="#8b97a8" />
  <rect x="1016" y="536" width="8" height="8" fill="#8b97a8" />
  <rect x="1080" y="536" width="8" height="8" fill="#8b97a8" />
  <rect x="1128" y="536" width="8" height="8" fill="#8b97a8" />
  <rect x="1160" y="536" width="8" height="8" fill="#8b97a8" />
  <rect x="136" y="544" width="8" height="8" fill="#8b97a8" />
  <rect x="176" y="544" width="8" height="8" fill="#8b97a8" />
  <rect x="192" y="544" width="8" height="8" fill="#8b97a8" />
  <rect x="216" y="544" width="8" height="8" fill="#8b97a8" />
  <rect x="248" y="544" width="8" height="8" fill="#8b97a8" />
  <rect x="264" y="544" width="8" height="8" fill="#8b97a8" />
  <rect x="312" y="544" width="8" height="8" fill="#8b97a8" />
  <rect x="344" y="544" width="8" height="8" fill="#8b97a8" />
  <rect x="424" y="544" width="8" height="8" fill="#8b97a8" />
  <rect x="456" y="544" width="8" height="8" fill="#8b97a8" />
  <rect x="504" y="544" width="8" height="8" fill="#8b97a8" />
  <rect x="568" y="544" width="8" height="8" fill="#8b97a8" />
  <rect x="648" y="544" width="8" height="8" fill="#8b97a8" />
  <rect x="680" y="544" width="8" height="8" fill="#8b97a8" />
  <rect x="696" y="544" width="8" height="8" fill="#8b97a8" />
  <rect x="728" y="544" width="8" height="8" fill="#8b97a8" />
  <rect x="760" y="544" width="8" height="8" fill="#8b97a8" />
  <rect x="792" y="544" width="8" height="8" fill="#8b97a8" />
  <rect x="824" y="544" width="8" height="8" fill="#8b97a8" />
  <rect x="888" y="544" width="8" height="8" fill="#8b97a8" />
  <rect x="936" y="544" width="8" height="8" fill="#8b97a8" />
  <rect x="968" y="544" width="8" height="8" fill="#8b97a8" />
  <rect x="984" y="544" width="8" height="8" fill="#8b97a8" />
  <rect x="1016" y="544" width="8" height="8" fill="#8b97a8" />
  <rect x="1080" y="544" width="8" height="8" fill="#8b97a8" />
  <rect x="1128" y="544" width="8" height="8" fill="#8b97a8" />
  <rect x="1160" y="544" width="8" height="8" fill="#8b97a8" />
  <rect x="136" y="552" width="8" height="8" fill="#8b97a8" />
  <rect x="184" y="552" width="8" height="8" fill="#8b97a8" />
  <rect x="216" y="552" width="32" height="8" fill="#8b97a8" />
  <rect x="264" y="552" width="32" height="8" fill="#8b97a8" />
  <rect x="312" y="552" width="8" height="8" fill="#8b97a8" />
  <rect x="344" y="552" width="8" height="8" fill="#8b97a8" />
  <rect x="424" y="552" width="8" height="8" fill="#8b97a8" />
  <rect x="456" y="552" width="32" height="8" fill="#8b97a8" />
  <rect x="512" y="552" width="24" height="8" fill="#8b97a8" />
  <rect x="568" y="552" width="8" height="8" fill="#8b97a8" />
  <rect x="648" y="552" width="8" height="8" fill="#8b97a8" />
  <rect x="680" y="552" width="8" height="8" fill="#8b97a8" />
  <rect x="696" y="552" width="40" height="8" fill="#8b97a8" />
  <rect x="760" y="552" width="8" height="8" fill="#8b97a8" />
  <rect x="792" y="552" width="40" height="8" fill="#8b97a8" />
  <rect x="888" y="552" width="32" height="8" fill="#8b97a8" />
  <rect x="936" y="552" width="8" height="8" fill="#8b97a8" />
  <rect x="968" y="552" width="8" height="8" fill="#8b97a8" />
  <rect x="984" y="552" width="32" height="8" fill="#8b97a8" />
  <rect x="1080" y="552" width="8" height="8" fill="#8b97a8" />
  <rect x="1104" y="552" width="16" height="8" fill="#8b97a8" />
  <rect x="1128" y="552" width="8" height="8" fill="#8b97a8" />
  <rect x="1160" y="552" width="8" height="8" fill="#8b97a8" />
  <rect x="136" y="560" width="8" height="8" fill="#8b97a8" />
  <rect x="184" y="560" width="8" height="8" fill="#8b97a8" />
  <rect x="216" y="560" width="8" height="8" fill="#8b97a8" />
  <rect x="264" y="560" width="8" height="8" fill="#8b97a8" />
  <rect x="312" y="560" width="8" height="8" fill="#8b97a8" />
  <rect x="344" y="560" width="8" height="8" fill="#8b97a8" />
  <rect x="424" y="560" width="8" height="8" fill="#8b97a8" />
  <rect x="456" y="560" width="8" height="8" fill="#8b97a8" />
  <rect x="536" y="560" width="8" height="8" fill="#8b97a8" />
  <rect x="568" y="560" width="8" height="8" fill="#8b97a8" />
  <rect x="648" y="560" width="8" height="8" fill="#8b97a8" />
  <rect x="680" y="560" width="8" height="8" fill="#8b97a8" />
  <rect x="696" y="560" width="8" height="8" fill="#8b97a8" />
  <rect x="728" y="560" width="8" height="8" fill="#8b97a8" />
  <rect x="760" y="560" width="8" height="8" fill="#8b97a8" />
  <rect x="792" y="560" width="8" height="8" fill="#8b97a8" />
  <rect x="824" y="560" width="8" height="8" fill="#8b97a8" />
  <rect x="888" y="560" width="8" height="8" fill="#8b97a8" />
  <rect x="936" y="560" width="8" height="8" fill="#8b97a8" />
  <rect x="968" y="560" width="8" height="8" fill="#8b97a8" />
  <rect x="984" y="560" width="8" height="8" fill="#8b97a8" />
  <rect x="1008" y="560" width="8" height="8" fill="#8b97a8" />
  <rect x="1080" y="560" width="8" height="8" fill="#8b97a8" />
  <rect x="1112" y="560" width="8" height="8" fill="#8b97a8" />
  <rect x="1128" y="560" width="8" height="8" fill="#8b97a8" />
  <rect x="1160" y="560" width="8" height="8" fill="#8b97a8" />
  <rect x="136" y="568" width="8" height="8" fill="#8b97a8" />
  <rect x="184" y="568" width="8" height="8" fill="#8b97a8" />
  <rect x="216" y="568" width="8" height="8" fill="#8b97a8" />
  <rect x="264" y="568" width="8" height="8" fill="#8b97a8" />
  <rect x="312" y="568" width="8" height="8" fill="#8b97a8" />
  <rect x="344" y="568" width="8" height="8" fill="#8b97a8" />
  <rect x="424" y="568" width="8" height="8" fill="#8b97a8" />
  <rect x="456" y="568" width="8" height="8" fill="#8b97a8" />
  <rect x="536" y="568" width="8" height="8" fill="#8b97a8" />
  <rect x="568" y="568" width="8" height="8" fill="#8b97a8" />
  <rect x="648" y="568" width="8" height="8" fill="#8b97a8" />
  <rect x="680" y="568" width="8" height="8" fill="#8b97a8" />
  <rect x="696" y="568" width="8" height="8" fill="#8b97a8" />
  <rect x="728" y="568" width="8" height="8" fill="#8b97a8" />
  <rect x="760" y="568" width="8" height="8" fill="#8b97a8" />
  <rect x="792" y="568" width="8" height="8" fill="#8b97a8" />
  <rect x="824" y="568" width="8" height="8" fill="#8b97a8" />
  <rect x="888" y="568" width="8" height="8" fill="#8b97a8" />
  <rect x="936" y="568" width="8" height="8" fill="#8b97a8" />
  <rect x="968" y="568" width="8" height="8" fill="#8b97a8" />
  <rect x="984" y="568" width="8" height="8" fill="#8b97a8" />
  <rect x="1016" y="568" width="8" height="8" fill="#8b97a8" />
  <rect x="1080" y="568" width="8" height="8" fill="#8b97a8" />
  <rect x="1112" y="568" width="8" height="8" fill="#8b97a8" />
  <rect x="1128" y="568" width="8" height="8" fill="#8b97a8" />
  <rect x="1160" y="568" width="8" height="8" fill="#8b97a8" />
  <rect x="0" y="576" width="8" height="8" fill="#16203a" />
  <rect x="64" y="576" width="8" height="8" fill="#16203a" />
  <rect x="128" y="576" width="8" height="8" fill="#16203a" />
  <rect x="136" y="576" width="8" height="8" fill="#8b97a8" />
  <rect x="184" y="576" width="8" height="8" fill="#8b97a8" />
  <rect x="192" y="576" width="8" height="8" fill="#16203a" />
  <rect x="216" y="576" width="8" height="8" fill="#8b97a8" />
  <rect x="256" y="576" width="8" height="8" fill="#16203a" />
  <rect x="264" y="576" width="40" height="8" fill="#8b97a8" />
  <rect x="312" y="576" width="32" height="8" fill="#8b97a8" />
  <rect x="384" y="576" width="8" height="8" fill="#16203a" />
  <rect x="424" y="576" width="8" height="8" fill="#8b97a8" />
  <rect x="448" y="576" width="8" height="8" fill="#16203a" />
  <rect x="456" y="576" width="40" height="8" fill="#8b97a8" />
  <rect x="504" y="576" width="32" height="8" fill="#8b97a8" />
  <rect x="568" y="576" width="8" height="8" fill="#8b97a8" />
  <rect x="576" y="576" width="8" height="8" fill="#16203a" />
  <rect x="640" y="576" width="8" height="8" fill="#16203a" />
  <rect x="648" y="576" width="32" height="8" fill="#8b97a8" />
  <rect x="696" y="576" width="8" height="8" fill="#8b97a8" />
  <rect x="704" y="576" width="8" height="8" fill="#16203a" />
  <rect x="728" y="576" width="8" height="8" fill="#8b97a8" />
  <rect x="760" y="576" width="8" height="8" fill="#8b97a8" />
  <rect x="768" y="576" width="8" height="8" fill="#16203a" />
  <rect x="792" y="576" width="8" height="8" fill="#8b97a8" />
  <rect x="824" y="576" width="8" height="8" fill="#8b97a8" />
  <rect x="832" y="576" width="8" height="8" fill="#16203a" />
  <rect x="888" y="576" width="8" height="8" fill="#8b97a8" />
  <rect x="896" y="576" width="8" height="8" fill="#16203a" />
  <rect x="944" y="576" width="24" height="8" fill="#8b97a8" />
  <rect x="984" y="576" width="8" height="8" fill="#8b97a8" />
  <rect x="1016" y="576" width="8" height="8" fill="#8b97a8" />
  <rect x="1024" y="576" width="8" height="8" fill="#16203a" />
  <rect x="1088" y="576" width="24" height="8" fill="#8b97a8" />
  <rect x="1136" y="576" width="24" height="8" fill="#8b97a8" />
  <rect x="1216" y="576" width="8" height="8" fill="#16203a" />
</svg>
